<mxfile host="app.diagrams.net" modified="2022-03-17T10:23:38.056Z" agent="5.0 (Windows NT 6.1; Win64; x64) AppleWebKit/537.36 (KHTML, like Gecko) Chrome/99.0.4844.51 Safari/537.36 Edg/99.0.1150.39" etag="ovjJWJoF6P50wb0mWGZS" version="15.9.1" type="github">
  <diagram id="u9AlP5fc0Jzq9wjf0rOz" name="时间">
    <mxGraphModel dx="1167" dy="751" grid="1" gridSize="10" guides="1" tooltips="1" connect="1" arrows="1" fold="1" page="1" pageScale="1" pageWidth="827" pageHeight="1169" math="0" shadow="0">
      <root>
        <mxCell id="0" />
        <mxCell id="1" parent="0" />
        <mxCell id="IuxWrAXJZGxmSXYeufW6-3" value="string" style="rounded=1;whiteSpace=wrap;html=1;fontSize=14;fontFamily=Lucida Console;" vertex="1" parent="1">
          <mxGeometry x="140" y="235" width="120" height="30" as="geometry" />
        </mxCell>
        <mxCell id="IuxWrAXJZGxmSXYeufW6-4" value="&lt;span&gt;formatted string&lt;/span&gt;" style="rounded=1;whiteSpace=wrap;html=1;fontSize=14;fontFamily=Lucida Console;" vertex="1" parent="1">
          <mxGeometry x="455" y="235" width="160" height="30" as="geometry" />
        </mxCell>
        <mxCell id="IuxWrAXJZGxmSXYeufW6-5" value="struct tm" style="rounded=1;whiteSpace=wrap;html=1;fontFamily=Lucida Console;fontSize=14;fillColor=#dae8fc;strokeColor=#6c8ebf;" vertex="1" parent="1">
          <mxGeometry x="310" y="350" width="120" height="30" as="geometry" />
        </mxCell>
        <mxCell id="IuxWrAXJZGxmSXYeufW6-6" value="time_t" style="rounded=1;whiteSpace=wrap;html=1;fontFamily=Lucida Console;fontSize=14;fillColor=#dae8fc;strokeColor=#6c8ebf;" vertex="1" parent="1">
          <mxGeometry x="310" y="480" width="120" height="30" as="geometry" />
        </mxCell>
        <mxCell id="IuxWrAXJZGxmSXYeufW6-8" style="edgeStyle=orthogonalEdgeStyle;rounded=0;orthogonalLoop=1;jettySize=auto;html=1;entryX=0.5;entryY=1;entryDx=0;entryDy=0;fontFamily=Lucida Console;fontSize=14;" edge="1" parent="1" source="IuxWrAXJZGxmSXYeufW6-7" target="IuxWrAXJZGxmSXYeufW6-6">
          <mxGeometry relative="1" as="geometry" />
        </mxCell>
        <mxCell id="IuxWrAXJZGxmSXYeufW6-7" value="kernel" style="rounded=1;whiteSpace=wrap;html=1;fontFamily=Lucida Console;fontSize=14;fillColor=#fff2cc;strokeColor=#d6b656;" vertex="1" parent="1">
          <mxGeometry x="310" y="570" width="120" height="30" as="geometry" />
        </mxCell>
        <mxCell id="IuxWrAXJZGxmSXYeufW6-9" value="" style="endArrow=classic;html=1;rounded=0;fontFamily=Lucida Console;fontSize=14;entryX=0.075;entryY=0.967;entryDx=0;entryDy=0;entryPerimeter=0;" edge="1" parent="1">
          <mxGeometry width="50" height="50" relative="1" as="geometry">
            <mxPoint x="326" y="480" as="sourcePoint" />
            <mxPoint x="326" y="379.01" as="targetPoint" />
            <Array as="points" />
          </mxGeometry>
        </mxCell>
        <mxCell id="IuxWrAXJZGxmSXYeufW6-10" value="" style="endArrow=classic;html=1;rounded=0;fontFamily=Lucida Console;fontSize=14;entryX=0.25;entryY=1;entryDx=0;entryDy=0;" edge="1" parent="1" target="IuxWrAXJZGxmSXYeufW6-5">
          <mxGeometry width="50" height="50" relative="1" as="geometry">
            <mxPoint x="340" y="480" as="sourcePoint" />
            <mxPoint x="340" y="400" as="targetPoint" />
          </mxGeometry>
        </mxCell>
        <mxCell id="IuxWrAXJZGxmSXYeufW6-11" value="" style="endArrow=none;html=1;rounded=0;fontFamily=Lucida Console;fontSize=14;startArrow=classic;startFill=1;endFill=0;exitX=0.85;exitY=0;exitDx=0;exitDy=0;exitPerimeter=0;" edge="1" parent="1" source="IuxWrAXJZGxmSXYeufW6-6">
          <mxGeometry width="50" height="50" relative="1" as="geometry">
            <mxPoint x="420" y="480" as="sourcePoint" />
            <mxPoint x="412" y="380" as="targetPoint" />
          </mxGeometry>
        </mxCell>
        <mxCell id="IuxWrAXJZGxmSXYeufW6-12" value="time()" style="text;html=1;align=center;verticalAlign=middle;resizable=0;points=[];autosize=1;strokeColor=none;fillColor=none;fontSize=14;fontFamily=Lucida Console;" vertex="1" parent="1">
          <mxGeometry x="370" y="530" width="70" height="20" as="geometry" />
        </mxCell>
        <mxCell id="IuxWrAXJZGxmSXYeufW6-14" value="localtime()" style="text;html=1;align=center;verticalAlign=middle;resizable=0;points=[];autosize=1;strokeColor=none;fillColor=none;fontSize=14;fontFamily=Lucida Console;rotation=-90;" vertex="1" parent="1">
          <mxGeometry x="300" y="420" width="110" height="20" as="geometry" />
        </mxCell>
        <mxCell id="IuxWrAXJZGxmSXYeufW6-16" value="mktime()" style="text;html=1;align=center;verticalAlign=middle;resizable=0;points=[];autosize=1;strokeColor=none;fillColor=none;fontSize=14;fontFamily=Lucida Console;rotation=90;" vertex="1" parent="1">
          <mxGeometry x="390" y="420" width="80" height="20" as="geometry" />
        </mxCell>
        <mxCell id="IuxWrAXJZGxmSXYeufW6-17" value="Calendar time 日历时间" style="text;html=1;align=center;verticalAlign=middle;resizable=0;points=[];autosize=1;strokeColor=none;fillColor=none;fontSize=13;fontFamily=Lucida Console;" vertex="1" parent="1">
          <mxGeometry x="430" y="485" width="180" height="20" as="geometry" />
        </mxCell>
        <mxCell id="IuxWrAXJZGxmSXYeufW6-18" value="以年、月、日、时、分、秒 表示的时间" style="text;html=1;align=center;verticalAlign=middle;resizable=0;points=[];autosize=1;strokeColor=none;fillColor=none;fontSize=14;fontFamily=Lucida Console;" vertex="1" parent="1">
          <mxGeometry x="430" y="355" width="260" height="20" as="geometry" />
        </mxCell>
        <mxCell id="IuxWrAXJZGxmSXYeufW6-20" value="字符串" style="text;html=1;align=center;verticalAlign=middle;resizable=0;points=[];autosize=1;strokeColor=none;fillColor=none;fontSize=13;fontFamily=Lucida Console;" vertex="1" parent="1">
          <mxGeometry x="175" y="215" width="50" height="20" as="geometry" />
        </mxCell>
        <mxCell id="IuxWrAXJZGxmSXYeufW6-21" value="格式化字符串" style="text;html=1;align=center;verticalAlign=middle;resizable=0;points=[];autosize=1;strokeColor=none;fillColor=none;fontSize=13;fontFamily=Lucida Console;" vertex="1" parent="1">
          <mxGeometry x="490" y="215" width="90" height="20" as="geometry" />
        </mxCell>
        <mxCell id="IuxWrAXJZGxmSXYeufW6-22" value="gmtime()" style="text;html=1;align=center;verticalAlign=middle;resizable=0;points=[];autosize=1;strokeColor=none;fillColor=none;fontSize=14;fontFamily=Lucida Console;rotation=-90;" vertex="1" parent="1">
          <mxGeometry x="275" y="420" width="80" height="20" as="geometry" />
        </mxCell>
        <mxCell id="IuxWrAXJZGxmSXYeufW6-23" value="" style="endArrow=classic;html=1;rounded=0;fontFamily=Lucida Console;fontSize=13;entryX=0.5;entryY=1;entryDx=0;entryDy=0;" edge="1" parent="1" target="IuxWrAXJZGxmSXYeufW6-3">
          <mxGeometry width="50" height="50" relative="1" as="geometry">
            <mxPoint x="310" y="495" as="sourcePoint" />
            <mxPoint x="310" y="350" as="targetPoint" />
          </mxGeometry>
        </mxCell>
        <mxCell id="IuxWrAXJZGxmSXYeufW6-24" value="ctime()" style="text;html=1;align=center;verticalAlign=middle;resizable=0;points=[];autosize=1;strokeColor=none;fillColor=none;fontSize=14;fontFamily=Lucida Console;rotation=65;" vertex="1" parent="1">
          <mxGeometry x="200" y="360" width="70" height="20" as="geometry" />
        </mxCell>
        <mxCell id="IuxWrAXJZGxmSXYeufW6-25" value="" style="endArrow=classic;html=1;rounded=0;fontFamily=Lucida Console;fontSize=13;entryX=0.95;entryY=1;entryDx=0;entryDy=0;entryPerimeter=0;exitX=0.25;exitY=0;exitDx=0;exitDy=0;" edge="1" parent="1" source="IuxWrAXJZGxmSXYeufW6-5" target="IuxWrAXJZGxmSXYeufW6-3">
          <mxGeometry width="50" height="50" relative="1" as="geometry">
            <mxPoint x="260" y="400" as="sourcePoint" />
            <mxPoint x="310" y="350" as="targetPoint" />
          </mxGeometry>
        </mxCell>
        <mxCell id="IuxWrAXJZGxmSXYeufW6-26" value="asctime()" style="text;html=1;align=center;verticalAlign=middle;resizable=0;points=[];autosize=1;strokeColor=none;fillColor=none;fontSize=14;fontFamily=Lucida Console;rotation=45;" vertex="1" parent="1">
          <mxGeometry x="270" y="300" width="90" height="20" as="geometry" />
        </mxCell>
        <mxCell id="IuxWrAXJZGxmSXYeufW6-27" value="" style="endArrow=classic;html=1;rounded=0;fontFamily=Lucida Console;fontSize=13;entryX=0;entryY=1;entryDx=0;entryDy=0;exitX=0.75;exitY=0;exitDx=0;exitDy=0;" edge="1" parent="1" source="IuxWrAXJZGxmSXYeufW6-5" target="IuxWrAXJZGxmSXYeufW6-4">
          <mxGeometry width="50" height="50" relative="1" as="geometry">
            <mxPoint x="260" y="400" as="sourcePoint" />
            <mxPoint x="310" y="350" as="targetPoint" />
            <Array as="points" />
          </mxGeometry>
        </mxCell>
        <mxCell id="IuxWrAXJZGxmSXYeufW6-28" value="strftime()" style="text;html=1;align=center;verticalAlign=middle;resizable=0;points=[];autosize=1;strokeColor=none;fillColor=none;fontSize=14;fontFamily=Lucida Console;rotation=-60;" vertex="1" parent="1">
          <mxGeometry x="360" y="300" width="100" height="20" as="geometry" />
        </mxCell>
        <mxCell id="IuxWrAXJZGxmSXYeufW6-31" value="&lt;h1&gt;&lt;font style=&quot;font-size: 20px&quot;&gt;时间API&lt;/font&gt;&lt;/h1&gt;&lt;p&gt;&lt;span&gt;time()&lt;/span&gt;&lt;br&gt;&lt;span&gt;gmtime()&lt;/span&gt;&lt;br&gt;&lt;span&gt;localtime()&lt;/span&gt;&lt;br&gt;&lt;span&gt;mktime()&lt;/span&gt;&lt;br&gt;&lt;span&gt;ctime()&lt;/span&gt;&lt;br&gt;&lt;span&gt;asctime()&lt;/span&gt;&lt;br&gt;&lt;span&gt;strftime()&lt;br&gt;&lt;/span&gt;&lt;span&gt;gettimeofday()&lt;/span&gt;&lt;/p&gt;" style="text;html=1;strokeColor=none;fillColor=#E8E8E8;spacing=5;spacingTop=-20;whiteSpace=wrap;overflow=hidden;rounded=0;fontFamily=Lucida Console;fontSize=14;" vertex="1" parent="1">
          <mxGeometry y="350" width="130" height="210" as="geometry" />
        </mxCell>
        <mxCell id="IuxWrAXJZGxmSXYeufW6-32" value="&lt;a href=&quot;https://mp.weixin.qq.com/s?__biz=MzUxMjEyNDgyNw==&amp;amp;mid=2247488505&amp;amp;idx=1&amp;amp;sn=12f0f64b46595175aa296bc4a3f918b9&amp;amp;chksm=f968610dce1fe81bce166512e592891001ac3ccc574c0c36f44f502567f42f0b26fe2fd9154f&amp;amp;scene=21#wechat_redirect&quot;&gt;C语言操作时间函数，实现定时执行某个任务小程序 (qq.com)&lt;/a&gt;" style="text;html=1;align=center;verticalAlign=middle;resizable=0;points=[];autosize=1;strokeColor=none;fillColor=none;fontSize=20;fontFamily=Lucida Console;" vertex="1" parent="1">
          <mxGeometry y="110" width="580" height="30" as="geometry" />
        </mxCell>
      </root>
    </mxGraphModel>
  </diagram>
</mxfile>
